<?xml version="1.0" standalone="no"?>
<!DOCTYPE svg PUBLIC "-//W3C//DTD SVG 20010904//EN"
 "http://www.w3.org/TR/2001/REC-SVG-20010904/DTD/svg10.dtd">
<svg version="1.0" xmlns="http://www.w3.org/2000/svg"
 width="512.000000pt" height="512.000000pt" viewBox="0 0 512.000000 512.000000"
 preserveAspectRatio="xMidYMid meet">

<g transform="translate(0.000000,512.000000) scale(0.100000,-0.100000)"
fill="#000000" stroke="none">
<path d="M390 5105 c-1 -11 -2 -23 -1 -27 0 -3 3 -35 6 -70 3 -34 10 -92 16
-128 6 -36 12 -78 15 -94 2 -16 6 -31 10 -35 4 -3 4 14 1 39 -4 25 -11 86 -17
135 -17 139 -27 202 -30 180z"/>
<path d="M546 4953 c12 -93 34 -244 49 -336 15 -92 25 -170 23 -173 -3 -2 -32
-1 -65 2 l-59 6 -24 144 c-13 79 -28 144 -33 144 -8 0 -6 -15 24 -178 10 -57
19 -104 19 -105 0 -4 -71 -5 -277 -7 l-203 -2 0 -1524 0 -1524 641 6 c581 5
643 4 659 -11 15 -14 20 -14 32 -2 10 10 25 12 53 7 57 -10 86 -21 80 -30 -3
-5 0 -12 6 -16 8 -4 9 -3 5 4 -8 13 2 15 49 12 55 -3 90 -8 105 -13 16 -6 101
-24 158 -34 17 -3 32 -9 32 -14 0 -4 17 -6 37 -3 22 3 39 0 44 -8 6 -9 18 -7
48 7 45 20 66 16 26 -5 -30 -16 -33 -34 -5 -27 11 3 20 1 20 -4 0 -5 5 -9 10
-9 6 0 9 24 8 59 l-3 59 -67 -5 c-36 -3 -75 -2 -85 2 -17 7 -55 11 -145 17
-21 2 -38 7 -38 11 0 9 129 3 224 -9 38 -5 52 -3 60 8 6 8 22 15 35 14 23 -1
24 2 24 57 -1 31 -2 58 -3 60 -1 1 -4 58 -5 127 -2 69 -6 162 -9 208 l-6 82
46 0 46 0 -7 33 c-4 17 -9 43 -12 56 -4 16 -2 22 6 17 6 -4 11 -1 11 9 0 9 -5
13 -11 10 -7 -5 -8 5 -4 31 16 85 5 368 -14 387 -5 5 -6 -3 -4 -17 3 -15 1
-26 -6 -26 -6 0 -11 12 -11 28 0 15 -3 38 -6 52 -5 24 -5 24 10 6 14 -18 16
-18 16 -3 0 10 -7 20 -15 23 -8 4 -15 10 -15 15 0 4 7 6 16 2 14 -5 16 1 12
43 -3 27 -8 57 -12 67 -5 10 -4 17 3 17 6 0 11 -7 11 -15 0 -8 8 -15 18 -15
11 0 13 3 5 8 -7 4 -15 28 -19 52 -4 25 -10 50 -14 55 -5 6 -11 21 -14 35 -2
14 -3 -1 -1 -32 2 -32 0 -58 -5 -58 -9 0 -18 45 -25 122 -3 29 -7 62 -10 74
-3 14 0 21 10 21 10 0 15 -12 16 -36 2 -33 2 -34 6 -7 4 22 7 26 14 15 7 -12
9 -12 9 1 0 8 -9 21 -20 28 -28 17 -48 71 -45 123 3 51 -10 93 -26 83 -8 -4
-7 -9 2 -16 11 -7 11 -11 2 -14 -9 -4 -9 -13 -2 -30 12 -34 11 -44 -5 -44 -19
0 -26 38 -31 166 -3 60 -5 109 -6 109 -3 0 -10 60 -14 115 -2 30 -7 70 -11 87
-5 24 -3 34 7 37 50 15 48 13 36 45 -15 39 -25 40 -19 1 3 -22 0 -30 -11 -30
-19 0 -29 29 -27 73 1 17 1 37 0 42 -1 6 -2 13 -1 17 0 4 -4 20 -10 35 -14 34
-37 253 -28 253 4 0 10 -6 13 -12 3 -7 3 9 0 35 -3 31 -1 46 6 42 5 -3 10 -15
10 -25 0 -24 21 -70 32 -70 4 0 8 -7 8 -15 0 -8 9 -15 20 -15 22 0 28 28 10
46 -6 6 -14 25 -19 42 -8 25 -6 34 6 40 13 8 13 13 -1 47 -19 45 -19 48 -5 39
8 -4 9 0 4 15 -3 11 -8 42 -11 68 -2 26 -7 56 -10 65 -3 10 -1 18 5 18 9 0 18
-26 36 -100 3 -14 7 -50 9 -80 3 -30 7 -68 10 -85 12 -68 16 -175 6 -175 -5 0
-10 12 -10 28 0 21 -2 24 -10 12 -9 -13 -11 -13 -20 0 -6 9 -10 10 -10 3 0 -7
9 -20 19 -30 23 -21 44 -100 29 -109 -5 -4 -5 -10 1 -17 5 -7 11 -23 14 -37 5
-23 -2 377 -9 525 -2 33 -3 90 -4 128 0 46 -4 67 -13 67 -8 0 -8 3 2 9 8 5 11
16 8 26 -4 9 -11 13 -17 10 -6 -4 -10 5 -10 21 0 26 -34 92 -54 106 -5 3 -11
15 -13 26 -1 11 -11 35 -22 54 -19 33 -29 144 -31 344 l0 71 -93 1 c-94 0 -94
0 -89 -24 2 -14 0 -24 -7 -24 -6 0 -11 9 -11 21 0 11 -5 17 -10 14 -6 -3 -10
-1 -10 4 0 7 -23 11 -55 11 l-54 0 3 -52 c5 -77 37 -360 43 -378 3 -8 7 -48 8
-88 2 -40 8 -79 15 -87 6 -8 9 -18 6 -23 -9 -14 36 -400 51 -442 3 -8 5 -27 4
-42 -2 -21 1 -27 13 -22 10 4 18 -5 25 -33 13 -47 14 -53 1 -53 -5 0 -10 9
-10 20 0 11 -4 20 -9 20 -5 0 -5 -17 0 -42 12 -51 17 -60 31 -52 7 5 9 1 5 -9
-3 -9 -2 -19 4 -23 6 -4 4 -13 -6 -24 -10 -11 -12 -20 -7 -24 6 -3 12 0 15 6
2 7 4 2 4 -12 0 -14 3 -33 7 -42 5 -11 4 -18 -2 -18 -6 0 -13 8 -15 18 -4 15
-5 15 -6 -1 0 -11 8 -26 18 -35 23 -20 37 -62 22 -62 -6 0 -11 8 -11 18 0 9
-4 23 -8 30 -5 7 -9 -14 -8 -50 0 -38 2 -53 6 -38 l6 25 18 -34 c10 -19 15
-43 12 -56 -3 -13 -1 -25 5 -27 5 -2 7 -11 4 -20 -4 -10 -13 -14 -23 -11 -10
4 -8 -1 6 -15 12 -12 22 -30 23 -39 0 -10 3 -30 5 -45 3 -21 1 -28 -11 -28
-17 0 -21 -25 -5 -35 6 -3 10 -15 10 -25 0 -10 9 -35 21 -54 11 -19 18 -40 14
-46 -4 -6 -1 -9 6 -8 10 2 13 -16 14 -69 0 -40 4 -75 8 -79 4 -4 7 -26 6 -48
0 -32 -2 -37 -9 -21 -6 14 -9 15 -9 4 -1 -8 4 -20 11 -27 13 -13 13 -12 23
-157 4 -66 3 -97 -3 -90 -6 6 -12 19 -15 30 -4 15 -5 13 -6 -7 0 -16 -7 -29
-13 -29 -7 -1 1 -4 17 -8 21 -4 31 -13 33 -29 2 -12 -1 -22 -7 -22 -6 0 -11 9
-11 20 0 35 -17 22 -24 -18 -6 -38 7 -177 23 -256 5 -22 9 -63 10 -90 1 -28 5
-55 8 -60 4 -6 -3 -3 -15 7 -25 23 -41 95 -34 161 2 28 -1 74 -8 103 -6 30
-11 75 -10 101 1 26 1 85 2 131 0 83 0 84 15 52 9 -17 18 -30 20 -27 3 2 -1
14 -7 26 -7 12 -10 33 -7 46 4 25 -8 34 -16 12 -2 -7 -4 24 -3 69 1 59 5 83
14 83 6 0 12 10 11 23 0 21 -1 21 -9 2 -7 -19 -8 -18 -14 5 -13 51 -12 95 2
92 10 -2 11 4 6 20 -3 13 -10 25 -14 28 -5 3 -11 22 -15 43 -4 20 -13 37 -20
37 -8 0 -16 18 -20 43 -4 23 -13 53 -20 67 -6 14 -17 52 -25 85 -7 33 -16 76
-21 95 -5 19 -12 105 -16 190 -4 99 -12 178 -24 220 -10 35 -15 68 -12 73 2 4
0 29 -6 55 -6 26 -13 70 -15 97 -2 28 -9 74 -15 104 -6 30 -9 56 -6 59 3 3 0
11 -5 18 -6 6 -10 16 -8 20 1 5 -3 61 -10 124 -7 63 -14 151 -17 195 -2 44 -9
107 -14 139 -6 32 -8 63 -4 69 4 6 0 8 -10 4 -13 -5 -17 -1 -17 14 0 11 5 17
10 14 17 -10 12 81 -5 95 -8 7 -16 9 -16 4 -1 -5 -5 9 -9 31 -6 30 -5 43 6 51
37 29 14 34 -157 34 l-172 0 7 -72 c4 -40 14 -124 22 -187 8 -63 12 -128 8
-144 -4 -19 -2 -27 4 -23 10 6 16 -20 27 -109 2 -22 13 -80 25 -130 26 -119
27 -115 -20 -115 -33 0 -40 3 -40 19 0 11 -4 23 -10 26 -6 4 -7 -6 -4 -25 5
-23 3 -30 -9 -30 -8 0 -18 6 -20 13 -4 10 -6 10 -6 0 -1 -20 -49 -16 -54 5 -3
12 -5 11 -6 -6 -1 -17 -6 -22 -18 -20 -17 3 -30 53 -52 208 -6 39 -9 45 -10
22 -1 -29 -3 -32 -21 -22 -17 9 -20 8 -20 -12 1 -23 10 -70 28 -140 8 -30 7
-38 -3 -38 -8 0 -17 4 -20 10 -16 27 -73 636 -60 648 4 4 10 1 12 -5 8 -21 26
-14 20 7 -3 11 -2 20 3 20 10 0 30 -78 31 -122 l1 -33 7 30 c7 28 8 27 15 -20
7 -46 9 -48 22 -30 12 16 14 17 14 2 0 -10 8 -17 18 -17 13 0 14 2 3 9 -9 6
-10 11 -2 15 13 8 27 -22 36 -76 3 -21 12 -41 20 -45 7 -5 20 -33 29 -63 15
-54 15 -39 0 50 -3 14 -7 65 -9 114 -5 103 -15 128 -15 36 0 -35 -3 -60 -7
-56 -10 10 -31 130 -32 184 -1 44 13 57 24 22 7 -22 20 -26 30 -10 3 6 1 10
-4 10 -6 0 -11 21 -11 50 l0 50 -124 0 c-119 0 -124 -1 -119 -20 3 -11 0 -20
-6 -20 -6 0 -11 9 -11 20 0 11 -4 20 -10 20 -5 0 -10 -14 -10 -31 0 -37 -20
-29 -21 9 l-1 27 -13 -30 -14 -30 -1 28 c0 23 -4 27 -29 27 -33 0 -32 16 -10
-202 11 -115 29 -161 29 -75 0 23 3 72 7 110 5 62 8 67 30 67 17 0 28 -8 36
-28 7 -16 17 -27 23 -25 16 5 25 -49 17 -105 -7 -45 -7 -45 -14 -17 -8 33 -5
-17 12 -220 6 -71 13 -132 16 -135 6 -6 -5 184 -13 243 -3 20 -2 37 3 37 5 0
17 -64 27 -142 9 -79 21 -172 25 -208 5 -36 7 -67 6 -68 -2 -2 -16 2 -32 10
-24 11 -29 21 -35 68 -15 108 -19 122 -33 117 -9 -4 -15 8 -19 41 -14 100 -17
110 -34 108 -24 -4 -25 -17 -13 -158 7 -72 10 -132 8 -135 -3 -2 -20 0 -38 5
-31 7 -35 13 -46 63 -12 53 -31 175 -37 234 -4 34 -31 206 -45 280 -5 27 -7
53 -5 57 3 4 2 23 -2 43 -5 27 -11 35 -28 35 l-22 0 22 -167z m1088 65 c54
-339 64 -433 40 -373 -4 11 -14 25 -22 31 -12 9 -14 26 -9 82 4 47 2 74 -5 78
-7 5 -8 2 -3 -6 5 -9 4 -11 -3 -6 -14 8 -16 43 -3 48 9 3 -10 152 -21 164 -4
3 -5 -11 -2 -32 3 -30 2 -34 -5 -19 -17 35 -13 65 9 65 14 0 20 -9 24 -32z
m-614 -19 c0 -13 -4 -18 -12 -13 -8 5 -9 -2 -4 -27 15 -69 16 -91 3 -87 -12 5
-23 109 -13 134 8 21 26 17 26 -7z m444 -36 c4 -9 3 -20 -2 -25 -6 -6 -11 1
-14 16 -6 29 6 35 16 9z m-163 -38 c4 -59 -3 -69 -15 -20 -7 28 -10 54 -8 58
7 15 20 -7 23 -38z m29 -197 c0 -14 -18 -9 -24 8 -11 28 -6 39 9 20 8 -11 15
-23 15 -28z m-111 -81 c0 -21 -1 -21 -9 -2 -12 28 -12 37 0 30 6 -3 10 -16 9
-28z m134 -83 c4 -38 12 -82 17 -98 6 -16 10 -41 10 -55 l-1 -26 -16 30 c-10
17 -16 38 -14 47 2 17 -15 125 -26 162 -3 12 -1 17 8 14 9 -3 17 -30 22 -74z
m-129 41 c3 -8 1 -15 -4 -15 -6 0 -10 7 -10 15 0 8 2 15 4 15 2 0 6 -7 10 -15z
m469 8 c3 -5 8 -34 12 -67 5 -41 3 -56 -4 -52 -6 4 -11 2 -11 -4 0 -6 6 -13
14 -16 20 -8 29 -92 12 -109 -20 -21 -26 -8 -19 42 4 29 2 47 -5 52 -17 10
-32 97 -19 110 7 7 6 15 -1 24 -7 8 -9 17 -5 20 9 9 21 9 26 0z m89 -35 c2
-23 5 -33 13 -51 4 -10 5 -20 2 -24 -6 -5 -37 61 -37 78 0 14 20 11 22 -3z
m112 -20 c7 -52 6 -78 -5 -78 -5 0 -10 10 -10 23 -1 12 -3 37 -5 55 -1 17 2
32 6 32 5 0 11 -15 14 -32z m-650 -31 c14 -91 15 -117 7 -117 -5 0 -12 18 -15
40 -3 22 -9 59 -12 81 -4 28 -3 39 5 35 5 -4 12 -21 15 -39z m-274 -57 c0 -5
-5 -10 -11 -10 -5 0 -7 5 -4 10 3 6 8 10 11 10 2 0 4 -4 4 -10z m610 -6 c0 -8
-4 -12 -10 -9 -5 3 -10 10 -10 16 0 5 5 9 10 9 6 0 10 -7 10 -16z m-750 -57
c0 -47 -25 -26 -28 24 -2 41 -1 43 13 25 8 -11 15 -33 15 -49z m998 44 c3 -8
-1 -12 -9 -9 -7 2 -15 10 -17 17 -3 8 1 12 9 9 7 -2 15 -10 17 -17z m82 -6
c10 -12 10 -15 -1 -15 -9 0 -10 -3 -4 -8 12 -8 17 -25 22 -72 l4 -35 -20 24
c-12 13 -21 28 -21 35 0 6 5 4 10 -4 7 -11 10 -11 10 -2 0 7 -7 24 -16 37 -9
14 -13 25 -9 25 4 0 2 7 -5 15 -10 12 -10 15 3 15 8 0 20 -7 27 -15z m-925
-72 c4 -29 3 -43 -4 -43 -6 0 -11 15 -11 34 0 19 -3 43 -6 53 -5 12 -4 15 3 8
6 -5 14 -29 18 -52z m829 41 c8 -22 7 -34 -3 -34 -5 0 -11 11 -13 25 -6 28 6
34 16 9z m-507 -26 c-3 -8 -6 -5 -6 6 -1 11 2 17 5 13 3 -3 4 -12 1 -19z m-44
-28 c-7 -8 -22 24 -16 34 4 5 10 1 13 -10 4 -10 6 -21 3 -24z m127 -6 c0 -14
-4 -23 -10 -19 -5 3 -10 15 -10 26 0 10 5 19 10 19 6 0 10 -12 10 -26z m456
-37 c9 3 14 -1 14 -12 0 -9 -4 -13 -10 -10 -6 4 -10 -7 -10 -25 0 -44 -25 -33
-26 11 0 37 7 60 13 42 3 -7 11 -9 19 -6z m-91 -116 c4 -39 4 -75 0 -82 -4 -6
-2 -14 4 -18 12 -8 40 -195 41 -268 0 -24 -4 -43 -9 -43 -16 0 -23 39 -17 93
4 36 3 46 -3 32 -10 -20 -11 -18 -15 25 0 8 3 18 9 22 5 4 2 15 -9 27 -15 16
-20 41 -23 113 -2 51 -4 100 -5 108 -3 32 2 60 11 60 5 0 12 -31 16 -69z m55
-7 c0 -8 5 -12 10 -9 6 4 8 11 5 16 -4 5 1 9 9 9 9 0 16 -4 16 -10 0 -5 7 -10
16 -10 9 0 14 -6 11 -12 -2 -7 0 -23 4 -35 5 -13 6 -30 2 -40 -5 -13 -10 -9
-20 18 l-13 34 4 -37 c3 -21 3 -38 1 -38 -10 0 -36 63 -31 75 3 9 0 12 -8 9
-8 -3 -15 4 -18 20 -3 14 -1 26 3 26 5 0 9 -7 9 -16z m-280 -73 c0 -11 -4 -9
-14 4 -8 11 -12 24 -9 28 7 11 23 -12 23 -32z m300 -61 c1 -14 1 -29 0 -35 -3
-16 -19 28 -19 55 -1 31 17 14 19 -20z m-110 -110 c0 -5 -4 -10 -10 -10 -5 0
-10 5 -10 10 0 6 5 10 10 10 6 0 10 -4 10 -10z m95 -200 c3 -5 1 -10 -4 -10
-6 0 -11 5 -11 10 0 6 2 10 4 10 3 0 8 -4 11 -10z m9 -83 c4 -36 3 -47 -7 -42
-6 4 -5 0 4 -7 10 -8 19 -35 22 -63 3 -28 8 -66 11 -85 3 -19 9 -87 14 -151 5
-64 12 -121 16 -127 3 -6 9 -70 12 -142 5 -106 4 -134 -7 -141 -11 -7 -10 -9
4 -9 19 0 24 -30 5 -30 -9 0 -10 -2 -2 -8 7 -4 14 -44 16 -90 3 -45 8 -85 12
-89 3 -3 1 -12 -5 -20 -9 -9 -8 -13 0 -13 7 0 9 -9 5 -24 -3 -13 -1 -40 4 -60
11 -39 1 -56 -22 -37 -9 8 -14 41 -15 107 0 53 -3 99 -5 102 -2 4 -7 32 -10
62 -3 30 -9 69 -12 86 -3 18 0 42 6 54 8 15 9 25 2 29 -6 3 -14 47 -17 96 -7
99 -9 121 -25 245 -6 47 -15 128 -20 180 -5 52 -14 129 -19 170 -14 99 -14 97
8 75 10 -11 21 -42 25 -68z m144 -704 c-1 -16 2 -52 6 -81 7 -43 5 -51 -6 -47
-8 3 -15 20 -15 38 -1 18 -3 51 -6 75 -3 30 -1 42 9 42 8 0 13 -11 12 -27z
m22 -203 c0 -54 -17 -59 -22 -7 -5 46 -2 60 13 52 5 -4 9 -24 9 -45z m5 -207
c2 -51 0 -93 -5 -93 -12 0 -17 31 -13 92 2 31 -1 68 -7 82 -5 14 -7 33 -3 43
12 30 24 -26 28 -124z m-168 15 c-3 -8 -6 -5 -6 6 -1 11 2 17 5 13 3 -3 4 -12
1 -19z m108 -90 c2 -13 7 -97 9 -188 3 -91 7 -188 8 -217 2 -28 0 -49 -4 -46
-5 2 -8 12 -8 21 0 10 -9 36 -20 57 -11 22 -17 41 -13 43 10 3 10 232 1 252
-4 8 -6 24 -4 35 3 11 5 30 5 43 1 12 5 22 11 22 5 0 12 -10 15 -22z m117
-213 c5 -40 -6 -66 -16 -40 -9 25 -7 75 3 75 5 0 11 -16 13 -35z m-42 -81 c0
-14 -4 -23 -10 -19 -5 3 -10 15 -10 26 0 10 5 19 10 19 6 0 10 -12 10 -26z
m-7 -125 c-2 -105 -1 -101 -12 -95 -13 8 -10 187 3 183 6 -2 9 -38 9 -88z"/>
<path d="M1652 4725 c0 -16 2 -22 5 -12 2 9 2 23 0 30 -3 6 -5 -1 -5 -18z"/>
<path d="M1761 4004 c0 -11 3 -14 6 -6 3 7 2 16 -1 19 -3 4 -6 -2 -5 -13z"/>
<path d="M3801 5069 c-19 -88 -33 -242 -26 -292 4 -31 2 -54 -5 -62 -12 -15
-20 -185 -8 -185 3 0 5 -25 5 -55 -1 -30 -6 -55 -11 -55 -4 0 -5 -11 -2 -24 3
-14 1 -26 -5 -28 -18 -6 -50 -187 -37 -208 7 -10 8 -32 4 -56 -7 -36 -9 -38
-22 -19 -8 10 -14 14 -14 8 0 -6 -3 -19 -7 -29 -5 -13 -3 -16 9 -11 21 7 31
-3 18 -19 -6 -6 -10 -16 -9 -20 5 -29 -2 -56 -14 -51 -9 3 -13 -9 -12 -47 0
-45 -2 -51 -20 -49 -19 1 -19 1 -2 -11 22 -17 22 -21 -8 -60 -25 -33 -32 -52
-17 -42 5 3 6 -8 4 -24 -2 -17 -8 -28 -12 -25 -12 7 -21 -44 -20 -101 1 -27
-1 -62 -5 -79 -3 -16 -7 -64 -9 -105 -2 -41 -8 -102 -14 -135 -6 -33 -16 -103
-22 -155 -20 -167 -32 -223 -57 -253 -14 -18 -23 -42 -23 -63 0 -19 -4 -34
-10 -34 -5 0 -10 10 -10 23 0 18 -2 19 -10 7 -5 -8 -7 -33 -5 -55 2 -22 1 -34
-1 -27 -8 17 -24 15 -24 -3 0 -8 -5 -15 -11 -15 -6 0 -9 9 -6 20 3 11 2 20 -3
20 -4 0 -10 -26 -14 -57 -3 -32 -19 -143 -35 -248 -16 -104 -28 -192 -25 -194
2 -2 4 3 4 12 0 10 6 14 14 11 10 -4 13 -21 11 -62 -2 -31 -1 -51 2 -44 8 21
24 13 19 -10 -10 -53 -35 -155 -45 -181 -11 -28 -11 -28 26 -25 34 3 38 6 44
38 5 23 3 37 -4 42 -8 5 -7 8 4 8 12 0 21 18 32 68 21 90 31 145 28 156 -1 6
3 20 10 33 9 16 9 27 2 34 -10 10 -5 46 24 149 9 30 16 79 16 108 0 28 4 52 9
52 4 0 8 7 8 15 0 8 5 15 10 15 14 0 12 -48 -6 -132 -9 -40 -17 -93 -19 -118
-5 -56 -22 -161 -35 -220 -6 -25 -14 -71 -19 -102 -5 -32 -13 -62 -17 -69 -12
-20 -22 -78 -13 -81 4 -2 -5 -40 -21 -86 -16 -45 -32 -113 -36 -150 -5 -64 -3
-73 30 -142 20 -41 41 -79 46 -84 6 -6 10 -20 10 -33 0 -13 5 -23 12 -23 6 0
4 -6 -7 -13 -21 -16 -13 -37 15 -37 10 0 21 -4 24 -8 3 -5 -8 -6 -25 -4 -24 3
-29 1 -29 -15 0 -21 20 -28 179 -63 46 -10 86 -22 90 -27 8 -14 47 -33 63 -33
7 1 0 7 -17 14 l-30 13 30 5 c16 4 32 3 35 -1 3 -5 18 -11 34 -15 22 -5 26
-10 16 -16 -7 -4 -20 -6 -28 -2 -10 3 -13 1 -9 -5 13 -20 110 -34 277 -39 118
-4 161 -3 150 5 -8 6 -24 11 -35 12 -17 1 -17 2 -2 6 25 7 10 23 -21 23 -19 0
-23 -3 -13 -9 23 -15 -2 -18 -94 -10 -49 4 -108 8 -130 9 -25 2 -31 4 -17 7
12 2 22 9 22 14 0 14 -23 11 -46 -6 -23 -15 -36 -11 -28 10 3 7 -3 15 -13 18
-10 2 7 2 37 0 30 -2 123 -8 205 -13 213 -14 283 -25 425 -66 179 -52 170 -51
170 -22 0 14 -3 46 -6 72 -6 42 -9 46 -28 40 -12 -4 -24 -11 -27 -16 -3 -5
-47 2 -100 17 -52 14 -125 32 -162 41 -38 9 -67 18 -65 20 3 2 39 -2 81 -10
43 -7 80 -9 83 -5 6 10 -36 28 -83 36 -18 3 -33 10 -33 15 0 5 -3 7 -8 4 -4
-2 -23 0 -42 4 -34 9 -34 9 -5 8 49 0 52 2 20 17 -27 12 -8 13 170 14 l201 1
17 63 c69 251 91 384 70 435 -13 31 -13 32 15 32 15 0 33 5 40 12 9 9 12 9 12
0 0 -7 4 -12 10 -12 5 0 7 6 4 14 -3 8 -1 17 5 21 6 3 11 15 11 26 0 10 5 28
10 39 6 11 15 29 20 40 6 11 10 28 10 39 0 11 5 32 11 48 6 15 9 28 7 28 -1 0
5 11 15 25 18 26 22 41 10 39 -21 -3 -20 6 2 67 37 103 42 98 18 -16 -4 -17
-2 -22 5 -15 6 6 12 21 14 35 2 14 6 30 10 35 3 6 9 27 13 48 4 20 11 37 16
37 4 0 11 20 15 45 3 25 10 48 15 51 5 3 9 16 9 30 0 13 5 24 11 24 6 0 8 7 5
16 -3 9 4 29 16 47 19 26 22 46 25 146 l3 116 -62 -125 c-35 -69 -87 -178
-117 -243 -29 -64 -57 -117 -61 -117 -3 0 -21 -33 -39 -74 -36 -83 -66 -119
-76 -93 -4 8 5 38 19 66 15 28 23 51 18 51 -4 0 -32 -50 -61 -112 -57 -121
-63 -123 -75 -28 -7 56 -19 102 -41 155 -50 118 -66 141 -99 137 -30 -3 -31
-1 -11 63 20 68 10 69 -21 2 -14 -32 -30 -57 -36 -57 -6 0 -7 8 -3 18 15 38
14 45 -2 10 -16 -33 -21 -36 -48 -31 -41 8 -52 18 -58 56 -3 18 -13 64 -22
102 -19 75 -20 111 -6 129 4 6 11 22 14 36 3 14 13 45 22 70 9 25 30 92 46
150 16 58 38 137 49 175 11 39 26 102 35 140 17 77 23 102 54 220 21 78 50
210 55 250 1 11 5 27 8 35 4 8 8 26 11 40 2 14 12 59 21 100 8 41 17 89 20
105 2 17 6 37 9 45 4 8 14 58 22 110 9 52 18 97 20 100 4 6 19 84 56 290 13
70 36 215 49 305 6 39 13 78 16 88 3 11 0 17 -9 17 -10 0 -17 -25 -26 -92 -7
-51 -15 -109 -19 -128 -3 -19 -6 -46 -7 -60 0 -14 -4 -31 -9 -38 -4 -7 -6 -16
-3 -18 3 -3 1 -20 -4 -37 -5 -18 -12 -45 -15 -62 -3 -16 -11 -61 -19 -100 -7
-38 -22 -122 -34 -185 -30 -159 -49 -254 -67 -330 -8 -36 -20 -99 -26 -140 -6
-41 -14 -77 -18 -80 -4 -3 -12 -32 -18 -65 -25 -129 -66 -295 -98 -401 -19
-61 -41 -140 -48 -175 -17 -82 -35 -146 -51 -184 -7 -16 -16 -45 -20 -62 -3
-18 -15 -49 -25 -70 l-18 -37 -3 47 c-3 33 1 54 12 69 9 12 15 28 12 35 -3 7
0 20 6 27 20 24 31 77 20 97 -7 15 -6 19 6 19 10 0 15 10 15 30 0 17 4 30 8
30 5 0 8 15 6 33 -1 17 5 42 13 55 8 13 11 31 8 41 -3 11 0 21 8 24 8 3 13 18
12 36 -1 17 2 31 6 31 8 0 25 95 21 123 -1 9 3 17 9 17 6 0 8 7 5 17 -4 9 -2
20 5 23 10 7 33 113 44 202 2 21 9 47 15 59 7 11 9 23 6 26 -3 4 -1 12 5 19 6
7 12 38 12 69 1 30 5 55 8 55 3 0 6 6 7 13 1 6 5 27 8 45 4 19 2 32 -4 32 -13
0 -12 6 -66 -235 -38 -170 -92 -369 -125 -465 -5 -14 -25 -88 -46 -165 -68
-262 -70 -266 -80 -179 -4 33 -12 70 -17 84 -11 30 -58 266 -58 293 0 10 -9
21 -20 24 -11 3 -20 10 -20 17 0 7 -3 8 -8 1 -4 -6 -34 -16 -66 -23 -68 -13
-85 -6 -87 37 -1 26 -1 26 -10 -4 -5 -16 -6 -38 -3 -47 3 -10 1 -18 -5 -18 -5
0 -16 -3 -25 -6 -18 -7 -22 24 -7 54 12 23 34 94 36 112 2 23 15 41 25 35 5
-3 5 -17 -1 -32 -5 -14 -8 -28 -5 -30 2 -2 8 9 14 26 9 25 7 34 -9 55 -12 16
-18 34 -14 45 8 26 -5 53 -22 46 -12 -4 -14 0 -10 15 3 14 0 20 -10 20 -13 0
-13 3 -3 15 9 11 9 15 1 15 -17 0 -25 -30 -12 -43 13 -13 15 -83 2 -91 -8 -5
-13 -38 -28 -179 -4 -45 -12 -64 -35 -89 -22 -23 -32 -28 -37 -19 -6 10 -10 9
-14 -3 -10 -27 -25 -18 -30 17 -4 32 -4 32 -5 -5 -1 -26 -8 -41 -21 -48 -26
-13 -34 -13 -24 3 4 6 9 27 10 46 1 19 7 39 13 45 5 5 10 25 10 42 0 18 5 36
10 39 6 3 10 20 10 36 0 17 5 40 11 51 6 11 15 46 20 77 5 31 11 72 14 91 3
19 10 39 15 44 6 6 10 20 10 33 0 13 5 23 11 23 7 0 8 -11 4 -31 -5 -22 -4
-29 4 -25 14 9 15 63 1 68 -6 2 -8 17 -4 36 7 35 24 44 24 12 0 -11 5 -20 11
-20 7 0 9 11 6 29 -3 15 1 50 9 77 8 27 16 76 18 109 1 34 5 65 8 70 5 9 22
113 58 355 5 36 17 112 25 169 9 57 14 105 12 108 -6 5 -12 -20 -48 -196 -16
-80 -36 -173 -44 -206 -16 -72 -58 -257 -76 -340 -15 -68 -33 -108 -43 -97 -4
4 -5 -5 -1 -21 10 -38 -42 -247 -61 -247 -17 0 -18 34 -2 63 6 12 11 37 9 55
-2 29 11 44 22 25 2 -5 1 -1 -1 7 -14 40 10 136 53 220 9 18 10 31 3 43 -7 13
-6 22 3 33 6 8 9 17 5 21 -3 3 1 14 9 23 8 9 17 42 19 75 2 32 10 61 16 65 7
4 10 14 8 21 -2 7 1 25 8 38 9 17 10 29 3 37 -5 6 -6 20 -2 30 6 17 7 16 14
-2 6 -16 8 -14 9 11 2 17 2 35 1 42 -1 6 3 14 9 18 5 3 10 11 10 16 0 6 -5 7
-11 3 -7 -4 -9 2 -7 17 2 13 9 23 15 22 12 -2 40 124 29 134 -3 4 -6 -6 -6
-21 0 -15 -4 -25 -8 -22 -14 9 -1 68 13 62 16 -6 25 15 24 52 0 24 -1 25 -9 7
-17 -39 -10 8 11 79 12 39 24 65 26 58 3 -7 -2 -31 -11 -54 -9 -22 -15 -43
-12 -46 3 -3 8 1 10 9 30 86 45 140 46 169 4 75 13 70 -124 70 l-124 0 -11
-51z m88 -76 c-30 -74 -36 -54 -8 23 12 33 24 53 27 46 2 -7 -6 -38 -19 -69z
m-58 -184 l-10 -24 0 26 c-1 14 2 29 6 33 12 12 14 -9 4 -35z m-20 -76 c-10
-17 -10 -16 -11 3 0 23 13 41 18 25 2 -6 -1 -18 -7 -28z m19 -77 c0 -8 -5 -18
-12 -22 -7 -4 -8 -3 -4 4 4 7 2 12 -4 12 -6 0 -8 5 -5 10 9 15 25 12 25 -4z
m-94 -1008 c-10 -101 -56 -303 -73 -315 -26 -20 -36 -15 -29 15 3 15 10 48 16
75 5 26 14 57 20 68 6 11 13 34 15 52 3 17 7 41 10 52 3 11 10 44 16 74 14 63
31 49 25 -21z m-119 -5 c-3 -10 -5 -2 -5 17 0 19 2 27 5 18 2 -10 2 -26 0 -35z
m319 -71 c-12 -11 -18 7 -10 30 l8 23 4 -23 c2 -13 1 -26 -2 -30z m-344 -475
c-8 -66 -16 -86 -28 -74 -4 4 -2 12 4 20 6 7 10 22 10 32 -2 26 12 98 17 93 3
-2 1 -34 -3 -71z m-17 -100 c3 -7 1 -42 -5 -77 -20 -123 -31 -195 -33 -217 -1
-13 -6 -23 -10 -23 -16 0 -18 30 -8 92 6 35 16 102 23 151 11 81 22 105 33 74z
m-192 -372 c-7 -21 -13 -19 -13 6 0 11 4 18 10 14 5 -3 7 -12 3 -20z m1640
-135 c-3 -11 -9 -20 -13 -20 -5 0 -6 9 -3 20 3 11 9 20 13 20 5 0 6 -9 3 -20z
m-1632 -77 c-9 -15 -10 -13 -11 13 0 17 3 34 8 38 11 12 14 -32 3 -51z m-1
-39 c0 -10 -6 -14 -15 -10 -18 7 -21 -20 -2 -28 9 -5 9 -7 -1 -12 -9 -4 -10
-10 -2 -19 7 -8 7 -21 1 -36 l-9 -24 -10 25 c-5 14 -13 23 -18 21 -5 -3 -10 3
-12 12 -2 9 1 17 7 17 6 0 8 6 5 14 -6 16 24 56 43 56 7 0 13 -7 13 -16z m30
-193 c0 -6 -4 -13 -10 -16 -5 -3 -10 1 -10 9 0 9 5 16 10 16 6 0 10 -4 10 -9z
m135 -782 c14 -6 9 -7 -15 -3 -19 4 -44 11 -55 15 -14 6 -9 7 15 3 19 -4 44
-11 55 -15z m630 7 c28 -8 41 -14 30 -14 -21 0 -107 25 -90 27 6 0 33 -6 60
-13z m-540 -26 c27 -7 27 -8 5 -8 -14 0 -36 4 -50 8 -20 6 -21 8 -5 8 11 0 34
-4 50 -8z m105 -25 c30 -7 44 -13 30 -13 -24 0 -115 25 -95 27 6 0 35 -6 65
-14z m-187 -21 c15 -4 27 -11 27 -16 0 -5 -4 -7 -9 -3 -5 3 -24 7 -41 9 -17 2
-37 9 -43 16 -10 10 -7 11 13 6 14 -4 37 -9 53 -12z m507 -28 c0 -8 10 -17 23
-19 16 -3 13 -5 -10 -6 -24 -1 -31 3 -27 13 4 9 -3 16 -18 19 -21 4 -20 4 5 6
17 1 27 -4 27 -13z m122 -1 c31 -8 83 -16 115 -18 32 -2 68 -9 78 -14 11 -6
43 -16 70 -22 67 -16 85 -34 25 -25 -25 4 -52 10 -60 14 -8 4 -37 8 -65 9 -27
1 -79 10 -115 20 -43 12 -72 16 -83 10 -10 -6 -18 -5 -22 1 -3 5 0 10 7 11 7
0 -5 6 -27 14 -39 13 -39 13 -10 14 17 1 56 -6 87 -14z m-179 -12 c-7 -2 -21
-2 -30 0 -10 3 -4 5 12 5 17 0 24 -2 18 -5z m644 -49 c-3 -3 -12 -4 -19 -1 -8
3 -5 6 6 6 11 1 17 -2 13 -5z m-98 -24 c10 -5 35 -11 55 -13 21 -3 43 -10 49
-17 9 -10 9 -12 -3 -8 -9 3 -41 11 -73 18 -31 6 -57 16 -57 21 0 12 7 11 29
-1z"/>
<path d="M4090 5117 c0 -2 -11 -80 -25 -173 -75 -498 -80 -548 -71 -621 5 -40
-6 -59 -17 -30 -6 13 -11 -35 -8 -68 1 -10 -2 -26 -5 -35 -4 -8 -9 -24 -11
-35 -2 -11 -6 -33 -8 -50 -12 -68 -26 -173 -28 -222 -3 -45 -1 -53 15 -53 19
0 24 15 8 25 -9 5 -8 12 6 53 6 15 7 15 14 -3 6 -14 9 -4 9 35 1 39 4 51 11
40 8 -13 10 -12 11 5 1 11 1 32 0 48 -1 15 3 27 8 27 6 0 11 11 11 24 0 14 5
28 10 31 24 15 4 -98 -45 -256 -19 -61 -19 -99 0 -99 10 0 15 10 15 30 0 18 6
33 15 36 9 4 15 19 15 38 0 17 7 40 15 50 8 11 15 30 15 43 0 13 4 23 9 23 5
0 14 30 21 68 7 37 16 72 20 77 5 6 10 26 12 45 1 19 8 38 13 43 6 4 5 10 -4
16 -15 9 -6 35 9 26 5 -3 9 10 8 30 -1 20 4 41 10 47 7 7 12 26 12 43 0 17 7
41 16 53 8 12 12 28 8 34 -10 16 -5 80 7 92 5 6 9 27 9 48 0 21 5 38 10 38 6
0 10 17 10 38 0 21 4 42 9 48 13 14 20 91 9 102 -6 6 -2 26 12 55 21 43 21 49
7 96 -8 28 -11 51 -6 53 5 2 3 23 -5 48 l-15 45 0 -60 c1 -33 0 -64 -1 -70 -1
-5 -3 -14 -4 -20 0 -5 -5 -12 -11 -15 -6 -3 -9 26 -7 78 1 67 -1 82 -13 82
-10 0 -15 -10 -15 -27 -1 -24 -2 -26 -11 -10 -5 9 -7 22 -4 27 3 6 0 10 -8 10
-8 0 -18 -10 -22 -22 l-8 -23 -4 23 c-2 12 -11 22 -19 22 -8 0 -14 -1 -14 -3z
m10 -799 c0 -19 -23 -78 -31 -78 -4 0 -5 -22 -3 -50 3 -56 -12 -78 -18 -26 -4
36 30 166 44 166 4 0 8 -5 8 -12z m-105 -67 c3 -5 1 -12 -5 -16 -5 -3 -10 1
-10 9 0 18 6 21 15 7z"/>
<path d="M4672 4964 c-22 -150 -32 -207 -72 -414 -10 -52 -26 -138 -35 -190
-9 -52 -25 -139 -37 -193 -11 -54 -18 -101 -15 -103 5 -5 11 18 42 151 l14 60
-6 -55 c-3 -30 -6 -59 -7 -64 0 -6 6 -11 15 -13 13 -3 19 17 33 114 10 65 22
138 28 163 6 25 11 60 11 78 0 17 4 32 8 32 4 0 7 15 7 33 0 17 10 72 22 121
12 49 20 105 19 125 -2 20 0 41 3 47 4 5 9 28 12 51 2 22 7 55 10 74 3 19 8
58 11 87 5 49 5 52 -17 52 -22 0 -24 -6 -46 -156z"/>
<path d="M4991 5058 c1 -35 -4 -94 -11 -133 -6 -38 -12 -85 -12 -102 0 -21 -4
-31 -11 -26 -6 4 -8 0 -4 -11 4 -9 -1 -53 -9 -99 -9 -45 -17 -93 -19 -107 -2
-14 -8 -45 -14 -70 -6 -25 -11 -61 -11 -80 0 -19 -6 -47 -13 -61 -8 -14 -14
-40 -15 -57 0 -18 -9 -67 -18 -110 -10 -42 -17 -81 -16 -85 1 -4 -2 -16 -7
-25 -5 -9 -11 -30 -14 -47 -3 -16 -14 -67 -26 -112 -12 -45 -21 -87 -21 -95 0
-30 38 53 49 108 14 70 25 117 46 204 9 36 20 83 25 105 35 166 52 259 59 316
4 36 10 70 14 75 6 10 30 168 29 194 0 8 4 29 8 45 5 17 11 65 14 107 2 43 7
82 10 87 9 14 -4 41 -20 41 -11 0 -14 -14 -13 -62z"/>
<path d="M1452 5060 c0 -14 2 -19 5 -12 2 6 2 18 0 25 -3 6 -5 1 -5 -13z"/>
<path d="M1060 4981 c0 -5 5 -13 10 -16 6 -3 10 -2 10 4 0 5 -4 13 -10 16 -5
3 -10 2 -10 -4z"/>
<path d="M4323 4942 c5 -38 3 -44 -16 -51 -12 -5 -25 -7 -28 -5 -4 2 -7 -11
-7 -29 -1 -89 -36 -247 -54 -247 -5 0 -3 -8 3 -18 9 -14 7 -29 -5 -65 -9 -26
-16 -70 -16 -98 0 -31 -4 -48 -10 -44 -6 4 -10 -8 -11 -27 -1 -42 -4 -60 -22
-117 -9 -25 -25 -95 -37 -155 -12 -60 -25 -116 -28 -124 -4 -11 -1 -14 11 -9
13 5 17 1 17 -14 0 -11 -4 -18 -9 -14 -6 3 -6 -6 -1 -25 5 -17 5 -32 -1 -35
-5 -3 -12 12 -15 35 -10 60 -17 40 -15 -40 2 -69 2 -70 -18 -58 -13 8 -17 16
-11 22 13 13 13 56 0 56 -5 0 -10 -9 -10 -20 0 -11 -5 -40 -12 -65 -10 -36
-10 -47 1 -57 11 -11 12 -8 7 15 -5 19 -3 27 7 27 18 0 21 -65 6 -103 -7 -15
-9 -31 -5 -35 9 -9 27 20 21 35 -2 7 0 15 5 18 6 4 10 19 10 36 0 16 5 29 11
29 8 0 10 12 6 36 -4 25 -2 37 8 40 14 6 24 40 28 92 1 12 6 22 12 22 5 0 10
20 10 44 0 31 -4 42 -12 39 -7 -3 -13 1 -13 9 0 22 12 29 27 17 10 -9 13 -8
13 4 0 8 6 17 14 20 19 7 25 74 9 95 -11 14 -12 9 -8 -33 2 -27 2 -42 -1 -32
-6 18 -24 24 -24 7 0 -5 -5 -10 -10 -10 -7 0 -7 8 1 22 11 20 30 88 48 168 l8
35 8 -28 c5 -18 2 -39 -10 -63 -11 -24 -14 -39 -7 -46 7 -7 16 9 27 48 10 33
22 68 28 79 9 18 8 19 -6 6 -15 -12 -17 -11 -17 13 0 14 0 28 0 31 0 3 3 5 8
4 4 0 6 -7 6 -15 -1 -8 3 -13 10 -11 6 2 12 12 12 23 1 10 3 21 4 24 7 19 13
51 17 90 3 25 11 52 18 60 9 10 12 42 10 103 -3 92 5 143 21 140 5 -1 12 -12
16 -25 6 -19 7 -18 5 7 -2 25 -6 30 -27 30 -22 0 -26 -6 -36 -55 -8 -41 -13
-50 -19 -37 -4 10 -3 36 4 56 6 21 11 53 11 71 0 31 1 32 18 17 10 -10 21 -17
23 -17 7 0 0 132 -7 139 -4 3 -4 -13 -1 -37z m-58 -371 c3 -5 1 -12 -4 -15 -5
-3 -11 1 -15 9 -6 16 9 21 19 6z"/>
<path d="M887 4903 c-7 -35 20 -309 32 -331 10 -17 9 35 -3 247 -6 97 -19 135
-29 84z"/>
<path d="M995 4792 c3 -7 5 -21 5 -30 0 -13 3 -12 15 4 20 27 19 40 -5 40 -13
0 -19 -5 -15 -14z"/>
<path d="M4340 4721 c0 -5 -3 -18 -6 -28 -6 -16 -5 -16 9 2 19 23 21 35 7 35
-5 0 -10 -4 -10 -9z"/>
<path d="M955 4631 c-3 -5 -1 -12 5 -16 5 -3 10 1 10 9 0 18 -6 21 -15 7z"/>
<path d="M1070 4551 c0 -31 24 -147 33 -156 6 -6 7 -3 4 10 -3 11 -8 45 -12
75 -5 52 -24 105 -25 71z"/>
<path d="M1068 4375 c2 -14 8 -25 12 -25 4 0 5 11 2 25 -2 14 -8 25 -12 25 -4
0 -5 -11 -2 -25z"/>
<path d="M5043 4096 c-39 -80 -67 -144 -61 -143 17 4 32 -29 23 -49 -5 -11 -9
-26 -10 -35 -1 -10 -12 -30 -24 -47 -11 -17 -21 -35 -21 -41 0 -6 -13 -33 -30
-59 -41 -67 -38 -82 7 -38 37 36 61 33 28 -4 -12 -13 -14 -23 -7 -35 7 -14 12
-12 30 19 12 20 27 36 35 36 7 0 21 14 31 31 36 62 27 17 -13 -61 -22 -44 -36
-80 -30 -80 6 0 13 9 16 19 3 11 11 22 19 25 8 3 14 15 14 26 0 11 3 20 8 20
4 0 19 22 35 49 l27 50 -2 231 -3 231 -72 -145z"/>
<path d="M4331 4194 c0 -11 3 -14 6 -6 3 7 2 16 -1 19 -3 4 -6 -2 -5 -13z"/>
<path d="M4281 4085 c-1 -11 -4 -31 -6 -45 l-6 -25 11 25 c6 13 9 33 7 45 -4
19 -4 19 -6 0z"/>
<path d="M4238 4012 c-2 -9 0 -25 6 -34 7 -11 6 -25 -2 -43 -7 -14 -12 -41
-12 -60 0 -25 -6 -38 -22 -47 -13 -7 -26 -11 -30 -10 -5 1 -8 -5 -8 -14 0 -8
5 -12 10 -9 13 8 13 -8 -1 -22 -7 -7 -4 -12 10 -16 17 -4 22 1 27 21 4 15 10
32 14 37 4 6 10 24 13 40 3 17 11 56 17 87 10 49 10 60 -3 73 -14 13 -16 13
-19 -3z"/>
<path d="M1851 3954 c0 -11 3 -14 6 -6 3 7 2 16 -1 19 -3 4 -6 -2 -5 -13z"/>
<path d="M4217 3953 c-4 -3 -7 -16 -6 -27 0 -19 1 -19 10 3 10 24 8 36 -4 24z"/>
<path d="M1906 3867 c3 -8 -5 -18 -18 -24 -21 -9 -20 -10 10 -10 18 0 32 4 32
8 0 15 -12 39 -21 39 -4 0 -6 -6 -3 -13z"/>
<path d="M1890 3804 c0 -8 5 -12 10 -9 6 3 10 10 10 16 0 5 -4 9 -10 9 -5 0
-10 -7 -10 -16z"/>
<path d="M4140 3761 c0 -7 37 -41 45 -41 16 0 1 27 -20 37 -14 6 -25 8 -25 4z"/>
<path d="M3830 3750 c-12 -8 -10 -10 8 -10 13 0 20 4 17 10 -7 12 -6 12 -25 0z"/>
<path d="M5095 3710 c-11 -24 -35 -69 -54 -100 -18 -30 -64 -112 -102 -182
-64 -119 -83 -168 -59 -153 6 3 10 0 10 -7 0 -8 5 -6 11 5 6 10 8 24 6 32 -3
7 1 21 8 32 9 11 14 13 15 5 0 -20 16 -6 36 34 11 20 27 50 36 68 9 17 17 35
18 41 0 13 -32 -33 -52 -75 -9 -19 -17 -29 -17 -22 -1 7 11 35 25 63 19 39 30
50 44 46 12 -3 17 0 14 7 -3 7 10 35 28 62 52 78 60 97 56 145 l-3 44 -20 -45z"/>
<path d="M1881 3734 c0 -5 9 -22 20 -39 10 -16 23 -41 29 -54 6 -13 13 -21 17
-18 8 8 -31 90 -51 106 -9 8 -16 10 -15 5z"/>
<path d="M4820 3694 c-12 -19 -21 -37 -18 -39 2 -2 14 14 26 36 28 49 22 52
-8 3z"/>
<path d="M4007 3713 c-10 -9 -8 -43 2 -43 5 0 9 11 9 25 0 27 -1 28 -11 18z"/>
<path d="M4156 3673 c-4 -9 -2 -21 4 -27 7 -7 10 -2 10 17 0 31 -5 34 -14 10z"/>
<path d="M3821 3640 c1 -14 5 -38 9 -55 7 -29 8 -29 10 -5 4 37 1 63 -10 74
-7 7 -10 1 -9 -14z"/>
<path d="M4020 3591 c0 -12 5 -21 10 -21 6 0 10 6 10 14 0 8 -4 18 -10 21 -5
3 -10 -3 -10 -14z"/>
<path d="M4760 3589 c-7 -11 -10 -23 -7 -25 2 -2 9 7 15 21 14 30 7 33 -8 4z"/>
<path d="M5089 3557 c-14 -29 -54 -104 -89 -167 -35 -63 -77 -143 -95 -176
-17 -34 -36 -68 -43 -76 -6 -8 -21 -45 -32 -81 -12 -37 -25 -67 -29 -67 -11 0
-38 -76 -45 -130 -4 -25 -8 -58 -11 -74 -4 -27 -3 -28 9 -10 12 17 34 74 37
99 1 6 8 15 15 20 7 6 18 29 24 53 11 41 42 99 74 135 9 9 16 20 16 25 0 4 9
25 21 46 11 21 18 40 15 43 -9 9 91 173 106 173 4 0 8 9 8 19 0 27 10 51 22
51 5 0 7 -10 4 -22 -3 -13 -3 -17 0 -10 3 6 10 10 15 6 5 -3 4 7 -1 21 -7 18
-7 33 0 46 6 11 10 44 8 73 l-3 54 -26 -51z"/>
<path d="M1955 3590 c-3 -5 1 -10 10 -10 9 0 13 5 10 10 -3 6 -8 10 -10 10 -2
0 -7 -4 -10 -10z"/>
<path d="M4134 3592 c-6 -4 -8 -16 -4 -26 6 -18 7 -18 13 4 7 28 6 32 -9 22z"/>
<path d="M3803 3559 c-1 -16 2 -29 6 -29 10 0 12 48 2 54 -3 2 -7 -9 -8 -25z"/>
<path d="M4947 3518 c-20 -37 -37 -72 -37 -80 0 -7 6 -3 13 8 6 12 25 42 40
68 16 25 27 51 25 58 -2 6 -21 -18 -41 -54z"/>
<path d="M1686 3525 c4 -8 8 -15 10 -15 2 0 4 7 4 15 0 8 -4 15 -10 15 -5 0
-7 -7 -4 -15z"/>
<path d="M1910 3526 c0 -21 11 -46 20 -46 10 0 0 49 -11 56 -5 3 -9 -1 -9 -10z"/>
<path d="M1663 3495 c0 -22 2 -30 4 -17 2 12 2 30 0 40 -3 9 -5 -1 -4 -23z"/>
<path d="M1949 3517 c6 -6 11 -21 11 -33 0 -13 3 -25 8 -27 4 -3 7 12 7 32 0
29 -4 37 -19 39 -14 1 -16 -2 -7 -11z"/>
<path d="M4041 3504 c0 -11 3 -14 6 -6 3 7 2 16 -1 19 -3 4 -6 -2 -5 -13z"/>
<path d="M3782 3480 c0 -19 2 -27 5 -17 2 9 2 25 0 35 -3 9 -5 1 -5 -18z"/>
<path d="M3807 3463 c-7 -39 5 -54 15 -18 4 16 4 33 -1 38 -5 5 -11 -4 -14
-20z"/>
<path d="M2015 3397 c5 -83 9 -97 28 -97 8 0 8 3 -1 12 -19 19 -14 55 10 77
17 17 19 23 8 36 -7 8 -16 12 -21 9 -5 -3 -13 5 -19 18 -6 16 -8 0 -5 -55z"/>
<path d="M1670 3426 c0 -8 4 -17 9 -20 5 -4 7 3 4 14 -6 23 -13 26 -13 6z"/>
<path d="M1972 3402 c1 -18 6 -32 10 -32 5 0 5 12 2 28 -10 39 -15 41 -12 4z"/>
<path d="M1930 3400 c0 -11 4 -20 9 -20 5 0 7 9 4 20 -3 11 -7 20 -9 20 -2 0
-4 -9 -4 -20z"/>
<path d="M4878 3375 c-8 -19 -12 -32 -7 -30 12 8 39 65 30 65 -4 0 -14 -16
-23 -35z"/>
<path d="M5103 3388 c-5 -7 -18 -33 -28 -58 -11 -25 -24 -48 -29 -52 -6 -4 -5
-12 2 -20 9 -11 7 -23 -5 -51 -18 -39 -33 -48 -33 -20 0 28 -11 7 -16 -31 -6
-48 11 -46 36 4 11 22 25 40 30 40 15 0 12 -9 -11 -47 -12 -19 -19 -37 -15
-40 3 -3 8 2 12 11 7 17 34 23 34 7 0 -6 -10 -26 -21 -46 -24 -40 -19 -57 9
-32 23 21 50 24 33 3 -9 -10 -8 -16 4 -26 13 -11 15 9 15 179 0 105 -2 191 -4
191 -2 0 -8 -6 -13 -12z"/>
<path d="M1681 3364 c0 -11 3 -14 6 -6 3 7 2 16 -1 19 -3 4 -6 -2 -5 -13z"/>
<path d="M1947 3253 c8 -52 19 -62 15 -13 -2 22 -8 42 -12 45 -5 3 -6 -12 -3
-32z"/>
<path d="M2041 3264 c-11 -13 -11 -18 1 -30 13 -13 15 -11 15 16 0 16 -1 30
-1 30 -1 -1 -7 -8 -15 -16z"/>
<path d="M1991 3234 c0 -11 3 -14 6 -6 3 7 2 16 -1 19 -3 4 -6 -2 -5 -13z"/>
<path d="M4853 3204 c-6 -25 -7 -42 -3 -37 9 9 25 83 18 83 -3 0 -9 -21 -15
-46z"/>
<path d="M5020 3240 c-8 -5 -12 -11 -9 -14 2 -3 11 -1 19 4 8 5 12 11 9 14 -2
3 -11 1 -19 -4z"/>
<path d="M1986 3185 c4 -8 8 -15 10 -15 2 0 4 7 4 15 0 8 -4 15 -10 15 -5 0
-7 -7 -4 -15z"/>
<path d="M2046 3178 c4 -6 8 -36 10 -67 2 -31 5 -100 8 -153 3 -54 9 -105 15
-115 7 -13 9 8 4 72 -3 50 -5 108 -4 129 1 23 -4 43 -11 48 -9 6 -10 10 -2 16
16 11 5 82 -13 82 -8 0 -11 -5 -7 -12z"/>
<path d="M2011 3154 c0 -11 3 -14 6 -6 3 7 2 16 -1 19 -3 4 -6 -2 -5 -13z"/>
<path d="M1980 3153 c0 -5 8 -17 17 -28 14 -18 15 -18 9 -2 -3 10 -6 23 -6 28
0 5 -4 9 -10 9 -5 0 -10 -3 -10 -7z"/>
<path d="M4955 3123 c-11 -20 -19 -44 -17 -53 1 -9 -4 -23 -13 -30 -8 -7 -15
-23 -15 -37 0 -13 -7 -26 -15 -29 -17 -7 -20 -50 -5 -59 7 -4 9 2 4 19 -4 16
-2 26 5 26 6 0 11 -5 11 -12 0 -9 3 -9 12 0 6 6 11 25 10 43 0 22 4 33 17 36
19 5 41 42 41 70 0 9 -6 13 -15 9 -18 -6 -19 -2 -4 26 6 11 9 21 7 23 -2 3
-13 -12 -23 -32z"/>
<path d="M1987 3053 c-3 -4 1 -17 9 -28 10 -13 14 -15 14 -4 0 20 -16 43 -23
32z"/>
<path d="M2131 3014 c0 -11 3 -14 6 -6 3 7 2 16 -1 19 -3 4 -6 -2 -5 -13z"/>
<path d="M5031 3014 c0 -11 3 -14 6 -6 3 7 2 16 -1 19 -3 4 -6 -2 -5 -13z"/>
<path d="M4990 2975 c0 -7 3 -21 6 -29 6 -15 8 -15 20 1 19 25 17 39 -6 40
-11 1 -20 -4 -20 -12z"/>
<path d="M4860 2870 c0 -19 -5 -30 -14 -30 -8 0 -24 -34 -41 -87 -15 -49 -34
-103 -41 -120 -11 -27 -11 -33 -1 -33 13 0 54 77 49 93 -1 4 3 7 8 7 6 0 10 8
10 18 0 14 -2 15 -10 2 -8 -12 -10 -11 -10 7 0 12 9 28 20 36 11 8 17 17 14
20 -4 3 3 21 15 40 22 36 28 77 11 77 -5 0 -10 -13 -10 -30z"/>
<path d="M1770 2872 c0 -5 7 -16 16 -23 14 -12 16 -11 13 5 -4 20 -29 35 -29
18z"/>
<path d="M2160 2825 c0 -5 5 -17 10 -25 5 -8 10 -10 10 -5 0 6 -5 17 -10 25
-5 8 -10 11 -10 5z"/>
<path d="M3387 2813 c-11 -11 -8 -43 5 -43 6 0 8 3 5 6 -3 4 -2 15 4 25 9 18
0 26 -14 12z"/>
<path d="M2078 2780 c2 -16 6 -30 8 -30 2 0 4 14 4 30 0 17 -4 30 -8 30 -5 0
-7 -13 -4 -30z"/>
<path d="M4395 2799 c-4 -6 -5 -12 -2 -15 2 -3 7 2 10 11 7 17 1 20 -8 4z"/>
<path d="M3300 2766 c-52 -30 -56 -35 -67 -87 -6 -30 -12 -69 -12 -87 -1 -30
-36 -185 -82 -362 -26 -101 -39 -164 -48 -227 -7 -50 -7 -53 15 -53 18 0 23 7
29 40 4 22 15 50 26 64 10 13 19 32 19 41 0 15 22 45 33 45 3 0 3 -19 0 -42
-4 -29 -3 -39 5 -34 7 4 12 17 12 29 0 18 2 19 10 7 12 -19 15 -9 30 100 7 47
18 119 25 160 7 41 17 98 21 125 4 28 9 57 10 65 7 32 34 243 32 246 -2 1 -28
-12 -58 -30z m-54 -473 c-10 -10 -19 5 -10 18 6 11 8 11 12 0 2 -7 1 -15 -2
-18z"/>
<path d="M2078 2716 c-4 -17 -1 -23 9 -19 7 3 13 -2 13 -11 0 -9 5 -16 10 -16
16 0 12 20 -9 46 l-19 24 -4 -24z"/>
<path d="M2161 2674 c0 -11 3 -14 6 -6 3 7 2 16 -1 19 -3 4 -6 -2 -5 -13z"/>
<path d="M5097 2608 c-10 -32 -22 -60 -27 -63 -6 -4 -10 -15 -10 -26 0 -11
-13 -59 -30 -107 -16 -48 -37 -107 -45 -132 -9 -25 -23 -63 -31 -85 -9 -22
-20 -50 -25 -62 -5 -13 -13 -33 -19 -45 -5 -13 -14 -42 -20 -66 -6 -24 -14
-50 -17 -58 -4 -10 3 -14 26 -14 21 0 31 5 31 16 0 8 5 12 10 9 6 -3 10 -3 11
2 0 4 3 17 5 28 3 11 7 33 9 49 5 34 35 117 47 130 4 6 8 20 8 33 0 23 2 29
33 91 9 19 17 43 17 55 0 11 11 54 25 94 20 57 25 90 23 141 l-3 67 -18 -57z"/>
<path d="M2070 2640 c0 -21 17 -46 25 -38 4 4 0 17 -9 30 -10 14 -16 17 -16 8z"/>
<path d="M2163 2634 c-3 -8 -1 -20 6 -27 8 -8 11 -4 11 16 0 30 -7 35 -17 11z"/>
<path d="M4746 2569 c-2 -8 -9 -29 -15 -46 -5 -18 -6 -33 -2 -33 5 0 11 8 15
18 3 9 11 25 18 34 10 14 10 20 1 29 -10 10 -13 9 -17 -2z"/>
<path d="M2080 2515 c0 -8 4 -15 10 -15 5 0 7 7 4 15 -4 8 -8 15 -10 15 -2 0
-4 -7 -4 -15z"/>
<path d="M2110 2475 c-2 -11 -2 -30 -1 -42 2 -24 -14 -32 -22 -10 -4 9 -6 9
-6 0 -1 -17 19 -27 31 -15 5 5 8 27 5 48 -2 22 -5 30 -7 19z"/>
<path d="M4796 2433 c-6 -14 -5 -15 5 -6 7 7 10 15 7 18 -3 3 -9 -2 -12 -12z"/>
<path d="M5102 2373 c-8 -24 -8 -39 -2 -41 17 -6 11 -30 -10 -45 -10 -7 -25
-35 -32 -63 -6 -27 -18 -56 -25 -65 -7 -8 -13 -32 -13 -52 0 -23 -6 -40 -17
-47 -16 -9 -15 -10 5 -5 29 8 28 4 -8 -33 -17 -18 -30 -43 -30 -57 0 -28 8
-29 95 -19 l51 6 2 117 2 116 -21 -33 c-12 -18 -24 -30 -27 -27 -3 3 0 11 6
17 7 7 12 21 12 33 0 11 6 28 14 37 11 15 23 198 13 198 -2 0 -9 -17 -15 -37z"/>
<path d="M2141 2384 c0 -11 3 -14 6 -6 3 7 2 16 -1 19 -3 4 -6 -2 -5 -13z"/>
<path d="M2090 2356 c0 -2 7 -9 15 -16 13 -11 14 -10 9 4 -5 14 -24 23 -24 12z"/>
<path d="M2146 2317 c3 -10 9 -15 12 -12 3 3 0 11 -7 18 -10 9 -11 8 -5 -6z"/>
<path d="M2196 2307 c3 -10 9 -15 12 -12 3 3 0 11 -7 18 -10 9 -11 8 -5 -6z"/>
<path d="M2173 2265 c0 -22 2 -30 4 -17 2 12 2 30 0 40 -3 9 -5 -1 -4 -23z"/>
<path d="M2103 2259 c-12 -12 -6 -78 8 -93 12 -13 12 26 0 58 -7 17 -7 26 2
29 7 2 9 7 6 10 -3 4 -10 2 -16 -4z"/>
<path d="M3297 2198 c-6 -43 9 -59 18 -18 4 18 3 36 -3 42 -6 6 -11 -2 -15
-24z"/>
<path d="M2140 2211 c0 -5 5 -13 10 -16 6 -3 10 -2 10 4 0 5 -4 13 -10 16 -5
3 -10 2 -10 -4z"/>
<path d="M2146 2162 c-2 -4 -1 -14 3 -21 6 -9 10 -7 14 8 5 20 -7 29 -17 13z"/>
<path d="M3317 2127 c-4 -10 -7 -26 -7 -35 1 -15 2 -15 11 1 6 10 9 25 7 35
-3 16 -4 15 -11 -1z"/>
<path d="M3278 2110 c-13 -33 -17 -80 -7 -86 8 -4 8 -9 1 -13 -11 -7 -4 -61 7
-61 12 0 30 94 21 105 -4 5 -10 24 -12 40 -3 19 -6 25 -10 15z"/>
<path d="M2201 1994 c0 -11 3 -14 6 -6 3 7 2 16 -1 19 -3 4 -6 -2 -5 -13z"/>
<path d="M3231 1994 c0 -11 3 -14 6 -6 3 7 2 16 -1 19 -3 4 -6 -2 -5 -13z"/>
<path d="M5037 1824 c-13 -14 6 -24 44 -24 47 0 52 15 8 24 -39 8 -44 8 -52 0z"/>
<path d="M4790 1661 c0 -15 29 -21 101 -21 55 0 69 3 69 15 0 12 -16 15 -85
15 -47 0 -85 -4 -85 -9z"/>
<path d="M5030 1410 c0 -5 21 -10 48 -9 38 1 42 2 22 9 -36 12 -70 12 -70 0z"/>
<path d="M4365 1385 c40 -19 67 -18 35 0 -14 8 -34 14 -45 14 -15 -1 -13 -4
10 -14z"/>
<path d="M495 1361 c-3 -5 -1 -12 5 -16 5 -3 10 1 10 9 0 18 -6 21 -15 7z"/>
<path d="M1258 1363 c7 -3 16 -2 19 1 4 3 -2 6 -13 5 -11 0 -14 -3 -6 -6z"/>
<path d="M4474 1351 c3 -5 18 -11 33 -14 16 -3 58 -15 96 -26 37 -11 67 -16
67 -11 0 9 -23 18 -66 26 -14 3 -45 11 -67 19 -48 17 -71 19 -63 6z"/>
<path d="M3430 1312 c0 -11 33 -22 70 -22 35 0 13 17 -32 25 -23 5 -38 3 -38
-3z"/>
<path d="M50 1290 c20 -13 160 -13 160 0 0 6 -36 10 -87 10 -61 0 -83 -3 -73
-10z"/>
<path d="M1240 1290 c0 -5 7 -10 16 -10 8 0 12 5 9 10 -3 6 -10 10 -16 10 -5
0 -9 -4 -9 -10z"/>
<path d="M795 1270 c-3 -5 3 -10 14 -10 11 0 23 5 26 10 3 6 -3 10 -14 10 -11
0 -23 -4 -26 -10z"/>
<path d="M1455 1270 c-3 -5 3 -10 14 -10 12 0 21 5 21 10 0 6 -6 10 -14 10 -8
0 -18 -4 -21 -10z"/>
<path d="M1550 1260 c-13 -8 -12 -10 3 -10 9 0 17 5 17 10 0 12 -1 12 -20 0z"/>
<path d="M990 1250 c0 -5 5 -10 10 -10 6 0 10 5 10 10 0 6 -4 10 -10 10 -5 0
-10 -4 -10 -10z"/>
<path d="M1109 1237 c-28 -22 -18 -33 13 -14 27 16 54 16 51 0 -2 -8 9 -10 32
-6 30 5 34 3 29 -11 -4 -11 0 -16 12 -17 11 -1 37 -3 59 -4 37 -4 38 -3 21 11
-11 8 -24 14 -29 14 -4 0 -6 4 -3 9 8 12 -30 23 -76 23 -21 0 -38 3 -38 8 0
14 -48 6 -71 -13z"/>
<path d="M1320 1252 c0 -5 7 -15 15 -22 8 -7 15 -8 15 -2 0 5 -7 15 -15 22 -8
7 -15 8 -15 2z"/>
<path d="M1918 1240 c-15 -24 -28 -26 -28 -5 0 8 -4 15 -10 15 -5 0 -10 -5
-10 -11 0 -16 -43 -64 -60 -66 -35 -5 -90 -29 -87 -38 2 -5 20 -11 40 -13 28
-2 36 0 32 11 -4 8 5 18 20 25 33 15 35 15 35 -3 0 -8 -9 -15 -20 -15 -21 0
-25 -8 -12 -26 6 -10 33 -19 86 -30 11 -2 23 -9 27 -15 5 -8 8 -7 11 2 4 12 7
12 21 0 14 -11 18 -11 23 3 4 10 12 15 19 13 8 -4 10 16 7 76 -2 45 -5 83 -6
83 0 1 -18 4 -38 8 -31 6 -39 3 -50 -14z m26 -66 c21 -8 20 -20 -1 -28 -10 -3
-23 -8 -29 -11 -15 -7 -13 27 1 37 12 9 10 9 29 2z m36 -69 c0 -9 -6 -12 -15
-9 -8 4 -12 10 -9 15 8 14 24 10 24 -6z"/>
<path d="M1040 1243 c0 -4 9 -14 21 -21 18 -12 20 -11 17 5 -3 17 -38 32 -38
16z"/>
<path d="M1710 1229 c0 -11 5 -17 10 -14 6 3 10 13 10 21 0 8 -4 14 -10 14 -5
0 -10 -9 -10 -21z"/>
<path d="M1568 1233 c7 -3 16 -2 19 1 4 3 -2 6 -13 5 -11 0 -14 -3 -6 -6z"/>
<path d="M1741 1227 c-14 -17 -4 -47 15 -47 8 0 14 4 14 9 0 5 18 12 40 16 39
7 57 25 23 23 -10 -1 -32 2 -49 6 -21 5 -34 3 -43 -7z"/>
<path d="M4070 1230 c0 -5 5 -10 10 -10 6 0 10 5 10 10 0 6 -4 10 -10 10 -5 0
-10 -4 -10 -10z"/>
<path d="M950 1220 c0 -5 5 -10 10 -10 6 0 10 5 10 10 0 6 -4 10 -10 10 -5 0
-10 -4 -10 -10z"/>
<path d="M1362 1217 c-16 -19 -4 -28 24 -21 15 4 24 2 24 -5 0 -18 48 -13 59
6 5 10 13 14 18 10 4 -5 -1 -15 -11 -23 -21 -15 -21 -16 12 -33 27 -14 42 -7
24 11 -7 7 -12 19 -12 28 1 12 4 11 16 -5 13 -17 16 -18 24 -5 5 8 10 18 10
22 0 7 -71 18 -100 16 -8 -1 -29 2 -46 6 -21 5 -34 3 -42 -7z"/>
<path d="M1650 1220 c0 -5 7 -10 15 -10 7 0 19 -8 24 -17 9 -16 10 -15 11 5 0
13 -4 20 -10 17 -5 -3 -10 -1 -10 4 0 6 -7 11 -15 11 -8 0 -15 -4 -15 -10z"/>
<path d="M1028 1203 c6 -2 18 -2 25 0 6 3 1 5 -13 5 -14 0 -19 -2 -12 -5z"/>
<path d="M4270 1200 c0 -5 5 -10 11 -10 5 0 7 5 4 10 -3 6 -8 10 -11 10 -2 0
-4 -4 -4 -10z"/>
<path d="M1583 1182 c-3 -14 -10 -19 -21 -15 -13 5 -14 3 -6 -6 14 -15 61 -16
97 -2 33 13 36 31 5 31 -13 0 -33 3 -46 6 -18 5 -24 2 -29 -14z"/>
<path d="M1450 1130 c0 -5 9 -10 21 -10 11 0 17 5 14 10 -3 6 -13 10 -21 10
-8 0 -14 -4 -14 -10z"/>
<path d="M4340 1110 c0 -6 35 -10 85 -10 50 0 85 4 85 10 0 6 -35 10 -85 10
-50 0 -85 -4 -85 -10z"/>
<path d="M4650 1096 c0 -2 7 -7 16 -10 8 -3 12 -2 9 4 -6 10 -25 14 -25 6z"/>
<path d="M1126 1041 c5 -5 44 -11 87 -15 64 -5 77 -3 77 9 0 12 -17 15 -87 15
-50 0 -83 -4 -77 -9z"/>
<path d="M4855 1020 c72 -12 115 -11 115 0 0 6 -33 9 -82 9 -78 -2 -80 -2 -33
-9z"/>
<path d="M1610 986 c0 -7 10 -18 23 -25 22 -11 22 -11 -2 -5 l-24 6 19 -32
c38 -65 62 -74 202 -80 70 -3 190 -1 267 3 148 9 183 19 213 65 14 22 14 22
-30 22 -25 0 -82 -5 -127 -11 -70 -9 -105 -8 -244 11 -89 12 -182 28 -207 35
-76 22 -90 24 -90 11z"/>
<path d="M310 790 c20 -13 160 -13 160 0 0 6 -36 10 -87 10 -61 0 -83 -3 -73
-10z"/>
<path d="M1670 781 c0 -9 147 -24 161 -15 5 3 7 10 4 15 -8 11 -165 12 -165 0z"/>
<path d="M1925 760 c3 -5 42 -10 86 -10 46 0 79 4 79 10 0 6 -35 10 -86 10
-54 0 -83 -4 -79 -10z"/>
<path d="M775 710 c-5 -8 154 -24 162 -16 3 2 2 9 -1 15 -7 11 -154 12 -161 1z"/>
<path d="M2901 626 c7 -15 27 -36 45 -47 42 -25 196 -34 414 -22 138 8 159 11
188 32 59 42 46 44 -175 38 -197 -6 -427 3 -466 18 -16 7 -16 5 -6 -19z"/>
<path d="M4725 540 c3 -5 42 -10 86 -10 51 0 78 4 74 10 -3 6 -42 10 -86 10
-51 0 -78 -4 -74 -10z"/>
<path d="M3330 531 c0 -9 150 -22 163 -14 4 2 5 8 2 13 -7 12 -165 12 -165 1z"/>
<path d="M2960 509 c0 -5 39 -9 87 -9 47 0 84 2 81 5 -10 10 -168 14 -168 4z"/>
<path d="M3120 400 c0 -11 153 -19 165 -9 5 6 1 9 -10 9 -11 0 -50 2 -87 4
-38 2 -68 0 -68 -4z"/>
<path d="M685 220 c3 -5 42 -10 86 -10 46 0 79 4 79 10 0 6 -35 10 -86 10 -54
0 -83 -4 -79 -10z"/>
<path d="M1320 211 c0 -9 149 -23 162 -15 5 3 6 10 3 15 -8 11 -165 12 -165 0z"/>
</g>
</svg>
